<svg xmlns="http://www.w3.org/2000/svg" xmlns:xlink="http://www.w3.org/1999/xlink" width="820" height="478"><rect width="1200" height="1085.5" rx="0" ry="0" class="a"/><svg height="1085.5" viewBox="0 0 120 108.55" width="1200" xmlns="http://www.w3.org/2000/svg" xmlns:xlink="http://www.w3.org/1999/xlink"><style>.a{fill:#282d35}.e{fill:#b9c0cb;white-space:pre}.f{fill:#dbab79}.f,.g,.h,.i,.j{white-space:pre}.g{fill:#a8cc8c;font-weight:700}.h,.i,.j{fill:#e88388}.i,.j{fill:#a8cc8c}.j{fill:#66c2cd;font-weight:700}</style><g font-family="Monaco,Consolas,Menlo,'Bitstream Vera Sans Mono','Powerline Symbols',monospace" font-size="1.67"><defs><symbol id="a"><path fill="transparent" d="M0 0h120v50H0z"/></symbol><symbol id="b"><path fill="#6f7683" d="M0 0h1.102v2.171H0z"/></symbol></defs><path class="a" d="M0 0h120v108.55H0z"/><svg width="120"><svg><use xlink:href="#a"/><use xlink:href="#b" x="4.996" y="47.737"/><text y="3.841" class="e">*</text><text x="2.004" y="3.841" class="f">615133e</text><text x="10.02" y="3.841" class="f">(</text><text x="11.022" y="3.841" class="g">demo</text><text x="15.03" y="3.841" class="f">)</text><text x="17.034" y="3.841" class="e">Make</text><text x="22.044" y="3.841" class="e">sweet</text><text x="28.056" y="3.841" class="e">asciinema</text><text x="38.076" y="3.841" class="e">demo</text><text y="6.012" class="h">|</text><text x="2.004" y="6.012" class="e">*</text><text x="4.008" y="6.012" class="f">c4e5ad7</text><text x="12.024" y="6.012" class="f">(</text><text x="13.026" y="6.012" class="g">logo2</text><text x="18.036" y="6.012" class="f">)</text><text x="20.04" y="6.012" class="e">Tweak</text><text x="26.052" y="6.012" class="e">alternative</text><text x="38.076" y="6.012" class="e">logo</text><text y="8.183" class="h">|</text><text x="2.004" y="8.183" class="e">*</text><text x="4.008" y="8.183" class="f">5db757f</text><text x="12.024" y="8.183" class="f">(</text><text x="13.026" y="8.183" class="g">logo</text><text x="17.034" y="8.183" class="f">)</text><text x="19.038" y="8.183" class="e">Alternative</text><text x="31.062" y="8.183" class="e">logo</text><text y="10.354" class="h">|</text><text x="2.004" y="10.354" class="i">|</text><text x="4.008" y="10.354" class="e">*</text><text x="6.012" y="10.354" class="f">cd13762</text><text x="14.028" y="10.354" class="f">(</text><text x="15.03" y="10.354" class="g">readme</text><text x="21.042" y="10.354" class="f">)</text><text x="23.046" y="10.354" class="e">More</text><text x="28.056" y="10.354" class="e">readme</text><text x="35.07" y="10.354" class="e">WIP</text><text y="12.525" class="h">|</text><text x="2.004" y="12.525" class="i">|</text><text x="4.008" y="12.525" class="e">*</text><text x="6.012" y="12.525" class="f">88c9259</text><text x="14.028" y="12.525" class="e">Add</text><text x="18.036" y="12.525" class="e">readme</text><text x="25.05" y="12.525" class="e">(WIP)</text><text y="14.696" class="h">|</text><text x="2.004" y="14.696" class="i">|</text><text x="3.006" y="14.696" class="h">/</text><text y="16.867" class="h">|/</text><text x="2.004" y="16.867" class="i">|</text><text y="19.038" class="e">*</text><text x="2.004" y="19.038" class="i">|</text><text x="4.008" y="19.038" class="f">f14c1a9</text><text x="12.024" y="19.038" class="f">(</text><text x="13.026" y="19.038" class="j">HEAD</text><text x="18.036" y="19.038" class="j">-&gt;</text><text x="21.042" y="19.038" class="g">master</text><text x="27.054" y="19.038" class="f">)</text><text x="29.058" y="19.038" class="e">Replace</text><text x="37.074" y="19.038" class="e">all</text><text x="41.082" y="19.038" class="e">instances</text><text x="51.102" y="19.038" class="e">of</text><text x="54.108" y="19.038" class="e">&apos;slave&apos;</text><text x="62.124" y="19.038" class="e">with</text><text x="67.134" y="19.038" class="e">&apos;underling&apos;</text><text y="21.209" class="e">*</text><text x="2.004" y="21.209" class="i">|</text><text x="4.008" y="21.209" class="f">b54b082</text><text x="12.024" y="21.209" class="e">Add</text><text x="16.032" y="21.209" class="e">motivational</text><text x="29.058" y="21.209" class="e">messages</text><text y="23.38" class="e">*</text><text x="2.004" y="23.38" class="i">|</text><text x="4.008" y="23.38" class="f">ad0fe5f</text><text x="12.024" y="23.38" class="e">Tweak</text><text x="18.036" y="23.38" class="e">logo</text><text y="25.551" class="i">|/</text><text y="27.722" class="e">*</text><text x="2.004" y="27.722" class="f">33d157b</text><text x="10.02" y="27.722" class="e">Add</text><text x="14.028" y="27.722" class="e">hidden</text><text x="21.042" y="27.722" class="e">crypto</text><text x="28.056" y="27.722" class="e">mining</text><text x="35.07" y="27.722" class="e">code</text><text y="29.893" class="e">*</text><text x="2.004" y="29.893" class="f">04f7c96</text><text x="10.02" y="29.893" class="e">Rewrite</text><text x="18.036" y="29.893" class="e">in</text><text x="21.042" y="29.893" class="e">Rust</text><text y="32.064" class="e">*</text><text x="2.004" y="32.064" class="f">c71f88c</text><text x="10.02" y="32.064" class="e">Add</text><text x="14.028" y="32.064" class="e">fancy</text><text x="20.04" y="32.064" class="e">logo</text><text y="34.235" class="e">*</text><text x="2.004" y="34.235" class="f">b435268</text><text x="10.02" y="34.235" class="e">Rewrite</text><text x="18.036" y="34.235" class="e">specification</text><text y="36.406" class="f">|</text><text x="2.004" y="36.406" class="e">*</text><text x="4.008" y="36.406" class="f">7c9af4d</text><text x="12.024" y="36.406" class="f">(</text><text x="13.026" y="36.406" class="g">spelling</text><text x="21.042" y="36.406" class="f">)</text><text x="23.046" y="36.406" class="e">Fix</text><text x="27.054" y="36.406" class="e">spelling</text><text y="38.577" class="f">|/</text><text y="40.748" class="e">*</text><text x="2.004" y="40.748" class="f">62dd268</text><text x="10.02" y="40.748" class="e">Fix</text><text x="14.028" y="40.748" class="e">bugs</text><text y="42.919" class="e">*</text><text x="2.004" y="42.919" class="f">08e0c2e</text><text x="10.02" y="42.919" class="e">Implement</text><text x="20.04" y="42.919" class="e">specification</text><text y="45.09" class="e">*</text><text x="2.004" y="45.09" class="f">0fc6cd2</text><text x="10.02" y="45.09" class="e">Write</text><text x="16.032" y="45.09" class="e">specification</text><text y="47.261" class="e">*</text><text x="2.004" y="47.261" class="f">f347684</text><text x="10.02" y="47.261" class="e">Initial</text><text x="18.036" y="47.261" class="e">commit</text><path fill="#b9c0cb" d="M0 47.762h5v2.171H0z"/><text y="49.432" style="white-space:pre" fill="#282d35">(END)</text></svg></svg></g></svg></svg>
