<svg xmlns="http://www.w3.org/2000/svg" xmlns:xlink="http://www.w3.org/1999/xlink" width="820" height="478"><rect width="1200" height="1085.5" rx="0" ry="0" class="a"/><svg height="1085.5" viewBox="0 0 120 108.55" width="1200" xmlns="http://www.w3.org/2000/svg" xmlns:xlink="http://www.w3.org/1999/xlink"><style>.a{fill:#282d35}.c{fill:#e88388;white-space:pre}.f{fill:#b9c0cb}.f,.g,.h{white-space:pre}.g{fill:#dbab79}.h{font-weight:700}.h,.i{fill:#a8cc8c}.i,.j,.k{white-space:pre}.j{fill:#66c2cd;font-weight:700}.k{fill:#71bef2}</style><g font-family="Monaco,Consolas,Menlo,'Bitstream Vera Sans Mono','Powerline Symbols',monospace" font-size="1.67"><defs><symbol id="1"><text y="1.67" class="c">|/</text></symbol><symbol id="a"><path fill="transparent" d="M0 0h120v50H0z"/></symbol><symbol id="b"><path fill="#6f7683" d="M0 0h1.102v2.171H0z"/></symbol></defs><path class="a" d="M0 0h120v108.55H0z"/><svg width="120"><svg><use xlink:href="#a"/><use xlink:href="#b" x="4.996" y="47.737"/><text y="3.841" class="f">*</text><text x="2.004" y="3.841" class="g">2bc544d</text><text x="10.02" y="3.841" class="g">(</text><text x="11.022" y="3.841" class="h">demo</text><text x="15.03" y="3.841" class="g">)</text><text x="17.034" y="3.841" class="f">Make</text><text x="22.044" y="3.841" class="f">sweet</text><text x="28.056" y="3.841" class="f">asciinema</text><text x="38.076" y="3.841" class="f">demo</text><text y="6.012" class="c">|</text><text x="2.004" y="6.012" class="f">*</text><text x="4.008" y="6.012" class="g">d5fdb23</text><text x="12.024" y="6.012" class="g">(</text><text x="13.026" y="6.012" class="h">logo2</text><text x="18.036" y="6.012" class="g">)</text><text x="20.04" y="6.012" class="f">Tweak</text><text x="26.052" y="6.012" class="f">alternative</text><text x="38.076" y="6.012" class="f">logo</text><text y="8.183" class="c">|</text><text x="2.004" y="8.183" class="f">*</text><text x="4.008" y="8.183" class="g">b919cea</text><text x="12.024" y="8.183" class="g">(</text><text x="13.026" y="8.183" class="h">logo</text><text x="17.034" y="8.183" class="g">)</text><text x="19.038" y="8.183" class="f">Alternative</text><text x="31.062" y="8.183" class="f">logo</text><text y="10.354" class="c">|</text><text x="2.004" y="10.354" class="i">|</text><text x="4.008" y="10.354" class="f">*</text><text x="6.012" y="10.354" class="g">f14c1a9</text><text x="14.028" y="10.354" class="g">(</text><text x="15.03" y="10.354" class="j">HEAD</text><text x="20.04" y="10.354" class="j">-&gt;</text><text x="23.046" y="10.354" class="h">master</text><text x="29.058" y="10.354" class="g">)</text><text x="31.062" y="10.354" class="f">Replace</text><text x="39.078" y="10.354" class="f">all</text><text x="43.086" y="10.354" class="f">instances</text><text x="53.106" y="10.354" class="f">of</text><text x="56.112" y="10.354" class="f">&apos;slave&apos;</text><text x="64.128" y="10.354" class="f">with</text><text x="69.138" y="10.354" class="f">&apos;underling&apos;</text><text y="12.525" class="c">|</text><text x="2.004" y="12.525" class="i">|</text><text x="4.008" y="12.525" class="f">*</text><text x="6.012" y="12.525" class="g">b54b082</text><text x="14.028" y="12.525" class="f">Add</text><text x="18.036" y="12.525" class="f">motivational</text><text x="31.062" y="12.525" class="f">messages</text><text y="14.696" class="c">|</text><text x="2.004" y="14.696" class="i">|</text><text x="4.008" y="14.696" class="f">*</text><text x="6.012" y="14.696" class="g">ad0fe5f</text><text x="14.028" y="14.696" class="f">Tweak</text><text x="20.04" y="14.696" class="f">logo</text><text y="16.867" class="c">|</text><text x="2.004" y="16.867" class="i">|</text><text x="4.008" y="16.867" class="f">*</text><text x="6.012" y="16.867" class="g">33d157b</text><text x="14.028" y="16.867" class="f">Add</text><text x="18.036" y="16.867" class="f">hidden</text><text x="25.05" y="16.867" class="f">crypto</text><text x="32.064" y="16.867" class="f">mining</text><text x="39.078" y="16.867" class="f">code</text><text y="19.038" class="c">|</text><text x="2.004" y="19.038" class="i">|</text><text x="4.008" y="19.038" class="f">*</text><text x="6.012" y="19.038" class="g">04f7c96</text><text x="14.028" y="19.038" class="f">Rewrite</text><text x="22.044" y="19.038" class="f">in</text><text x="25.05" y="19.038" class="f">Rust</text><text y="21.209" class="c">|</text><text x="2.004" y="21.209" class="i">|/</text><text y="23.38" class="c">|</text><text x="2.004" y="23.38" class="f">*</text><text x="4.008" y="23.38" class="g">c71f88c</text><text x="12.024" y="23.38" class="f">Add</text><text x="16.032" y="23.38" class="f">fancy</text><text x="22.044" y="23.38" class="f">logo</text><text y="25.551" class="c">|</text><text x="2.004" y="25.551" class="f">*</text><text x="4.008" y="25.551" class="g">b435268</text><text x="12.024" y="25.551" class="f">Rewrite</text><text x="20.04" y="25.551" class="f">specification</text><text y="27.722" class="c">|</text><text x="2.004" y="27.722" class="f">*</text><text x="4.008" y="27.722" class="g">62dd268</text><text x="12.024" y="27.722" class="f">Fix</text><text x="16.032" y="27.722" class="f">bugs</text><use xlink:href="#1" y="28.223"/><text y="32.064" class="c">|</text><text x="2.004" y="32.064" class="f">*</text><text x="4.008" y="32.064" class="g">c0bccfe</text><text x="12.024" y="32.064" class="g">(</text><text x="13.026" y="32.064" class="h">readme</text><text x="19.038" y="32.064" class="g">)</text><text x="21.042" y="32.064" class="f">More</text><text x="26.052" y="32.064" class="f">readme</text><text x="33.066" y="32.064" class="f">WIP</text><text y="34.235" class="c">|</text><text x="2.004" y="34.235" class="f">*</text><text x="4.008" y="34.235" class="g">9352ff3</text><text x="12.024" y="34.235" class="f">Add</text><text x="16.032" y="34.235" class="f">readme</text><text x="23.046" y="34.235" class="f">(WIP)</text><use xlink:href="#1" y="34.736"/><text y="38.577" class="f">*</text><text x="2.004" y="38.577" class="g">08e0c2e</text><text x="10.02" y="38.577" class="f">Implement</text><text x="20.04" y="38.577" class="f">specification</text><text y="40.748" class="k">|</text><text x="2.004" y="40.748" class="f">*</text><text x="4.008" y="40.748" class="g">0291123</text><text x="12.024" y="40.748" class="g">(</text><text x="13.026" y="40.748" class="h">spelling</text><text x="21.042" y="40.748" class="g">)</text><text x="23.046" y="40.748" class="f">Fix</text><text x="27.054" y="40.748" class="f">spelling</text><text y="42.919" class="k">|/</text><text y="45.09" class="f">*</text><text x="2.004" y="45.09" class="g">0fc6cd2</text><text x="10.02" y="45.09" class="f">Write</text><text x="16.032" y="45.09" class="f">specification</text><text y="47.261" class="f">*</text><text x="2.004" y="47.261" class="g">f347684</text><text x="10.02" y="47.261" class="f">Initial</text><text x="18.036" y="47.261" class="f">commit</text><path fill="#b9c0cb" d="M0 47.762h5v2.171H0z"/><text y="49.432" style="white-space:pre" fill="#282d35">(END)</text></svg></svg></g></svg></svg>
