<svg xmlns="http://www.w3.org/2000/svg" xmlns:xlink="http://www.w3.org/1999/xlink" width="820" height="655"><rect width="1200" height="1085.5" rx="0" ry="0" class="a"/><svg height="1085.5" viewBox="0 0 120 108.55" width="1200" xmlns="http://www.w3.org/2000/svg" xmlns:xlink="http://www.w3.org/1999/xlink"><style>@keyframes m{0%{transform:translateX(0)}4.8%{transform:translateX(-120px)}4.9%{transform:translateX(-240px)}12.1%{transform:translateX(-360px)}16.1%{transform:translateX(-480px)}19.9%{transform:translateX(-600px)}21.6%{transform:translateX(-720px)}24.2%{transform:translateX(-840px)}26%{transform:translateX(-960px)}28%{transform:translateX(-1080px)}29.9%{transform:translateX(-1200px)}31.9%{transform:translateX(-1320px)}35.8%{transform:translateX(-1440px)}43.6%{transform:translateX(-1800px)}44.1%{transform:translateX(-1920px)}44.7%{transform:translateX(-2040px)}45%{transform:translateX(-2280px)}46.5%{transform:translateX(-2400px)}46.7%{transform:translateX(-2520px)}48.4%{transform:translateX(-2640px)}51.5%{transform:translateX(-2760px)}51.6%{transform:translateX(-2880px)}51.8%{transform:translateX(-3000px)}53.4%{transform:translateX(-3120px)}56.6%{transform:translateX(-3240px)}56.8%{transform:translateX(-3360px)}56.9%{transform:translateX(-3480px)}58.5%{transform:translateX(-3600px)}58.7%{transform:translateX(-3720px)}60.3%{transform:translateX(-3840px)}63.6%{transform:translateX(-3960px)}63.8%{transform:translateX(-4080px)}63.9%{transform:translateX(-4680px)}to{transform:translateX(-4800px)}}.a{fill:#282d35}.c,.d{fill:#66c2cd;white-space:pre}.d{fill:#b9c0cb}.e{fill:#a8cc8c}.e,.f,.h,.j{white-space:pre}.f{fill:#a8cc8c;font-weight:700}.h,.j{fill:#dbab79}.j{fill:#b9c0cb;font-weight:700}</style><g font-family="Monaco,Consolas,Menlo,'Bitstream Vera Sans Mono','Powerline Symbols',monospace" font-size="1.67"><defs><symbol id="1"><text x="1.002" y="1.67" class="c">~/repo</text></symbol><symbol id="2"><text x="1.002" y="1.67" class="c">~/repo</text><text x="8.016" y="1.67" class="d">autorebase</text></symbol><symbol id="3"><text y="1.67" class="e">•</text><text x="2.004" y="1.67" class="e">Creating</text><text x="11.022" y="1.67" class="e">worktree...</text></symbol><symbol id="4"><text y="1.67" class="e">•</text><text x="2.004" y="1.67" class="e">Getting</text><text x="10.02" y="1.67" class="e">branches...</text></symbol><symbol id="5"><text x="4.008" y="1.67" class="d">-</text><text x="6.012" y="1.67" class="f">demo</text></symbol><symbol id="6"><text x="4.008" y="1.67" class="d">-</text><text x="6.012" y="1.67" class="f">logo</text></symbol><symbol id="7"><text x="4.008" y="1.67" class="d">-</text><text x="6.012" y="1.67" class="f">logo2</text></symbol><symbol id="8"><text x="4.008" y="1.67" class="d">-</text><text x="6.012" y="1.67" style="white-space:pre" fill="#71bef2" font-weight="700">master</text><text x="13.026" y="1.67" class="d">(target</text><text x="21.042" y="1.67" class="d">branch)</text></symbol><symbol id="9"><text x="4.008" y="1.67" class="d">-</text><text x="6.012" y="1.67" class="f">readme</text></symbol><symbol id="10"><text x="4.008" y="1.67" class="d">-</text><text x="6.012" y="1.67" class="f">spelling</text></symbol><symbol id="11"><text y="1.67" class="h">•</text><text x="2.004" y="1.67" class="h">Warning:</text><text x="11.022" y="1.67" class="h">Not</text><text x="15.03" y="1.67" class="h">pulling</text><text x="23.046" y="1.67" class="h">target</text><text x="30.06" y="1.67" class="h">branch</text><text x="37.074" y="1.67" style="white-space:pre" fill="#dbab79" font-weight="700">master</text><text x="44.088" y="1.67" class="h">because</text><text x="52.104" y="1.67" class="h">it</text><text x="55.11" y="1.67" class="h">has</text><text x="59.118" y="1.67" class="h">no</text><text x="62.124" y="1.67" class="h">upstream</text></symbol><symbol id="12"><text y="1.67" class="d">•</text><text x="2.004" y="1.67" class="d">Rebasing</text><text x="11.022" y="1.67" class="j">demo</text><text x="15.03" y="1.67" class="d">...</text></symbol><symbol id="13"><text x="4.008" y="1.67" class="e">-</text><text x="6.012" y="1.67" class="e">Success!</text></symbol><symbol id="14"><text y="1.67" class="d">•</text><text x="2.004" y="1.67" class="d">Rebasing</text><text x="11.022" y="1.67" class="j">logo</text><text x="15.03" y="1.67" class="d">...</text></symbol><symbol id="15"><text x="4.008" y="1.67" class="h">-</text><text x="6.012" y="1.67" class="h">Conflicts...</text></symbol><symbol id="16"><text x="4.008" y="1.67" class="d">-</text><text x="6.012" y="1.67" class="d">Finding</text><text x="14.028" y="1.67" class="d">first</text><text x="20.04" y="1.67" class="d">conflict...</text></symbol><symbol id="17"><text x="4.008" y="1.67" class="h">-</text><text x="6.012" y="1.67" class="h">Rebase</text><text x="13.026" y="1.67" class="h">stunted</text><text x="21.042" y="1.67" class="h">by</text><text x="24.048" y="1.67" class="h">conflicts.</text><text x="35.07" y="1.67" class="h">Rebase</text><text x="42.084" y="1.67" class="h">manually.</text></symbol><symbol id="18"><text y="1.67" class="d">•</text><text x="2.004" y="1.67" class="d">Rebasing</text><text x="11.022" y="1.67" class="j">logo2</text><text x="16.032" y="1.67" class="d">...</text></symbol><symbol id="19"><text y="1.67" class="d">•</text><text x="2.004" y="1.67" class="d">Rebasing</text><text x="11.022" y="1.67" class="j">readme</text><text x="17.034" y="1.67" class="d">...</text></symbol><symbol id="20"><text y="1.67" class="d">•</text><text x="2.004" y="1.67" class="d">Rebasing</text><text x="11.022" y="1.67" class="j">spelling</text><text x="19.038" y="1.67" class="d">...</text></symbol><symbol id="a"><path fill="transparent" d="M0 0h120v50H0z"/></symbol><symbol id="b"><path fill="#6f7683" d="M0 0h1.102v2.171H0z"/></symbol></defs><path class="a" d="M0 0h120v108.55H0z"/><g style="animation-duration:5.615161s;animation-iteration-count:infinite;animation-name:m;animation-timing-function:steps(1,end)"><svg width="4920"><svg><use xlink:href="#a"/><use xlink:href="#b" x="-.004"/></svg><svg x="120"><use xlink:href="#a"/><use xlink:href="#b" x="-.004"/></svg><svg x="240"><use xlink:href="#a"/><use xlink:href="#b" x="7.996"/><use xlink:href="#1"/></svg><svg x="360"><use xlink:href="#a"/><use xlink:href="#b" x="8.996"/><text x="1.002" y="1.67" class="c">~/repo</text><text x="8.016" y="1.67" class="d">a</text></svg><svg x="480"><use xlink:href="#a"/><use xlink:href="#b" x="9.996"/><text x="1.002" y="1.67" class="c">~/repo</text><text x="8.016" y="1.67" class="d">au</text></svg><svg x="600"><use xlink:href="#a"/><use xlink:href="#b" x="10.996"/><text x="1.002" y="1.67" class="c">~/repo</text><text x="8.016" y="1.67" class="d">aut</text></svg><svg x="720"><use xlink:href="#a"/><use xlink:href="#b" x="11.996"/><text x="1.002" y="1.67" class="c">~/repo</text><text x="8.016" y="1.67" class="d">auto</text></svg><svg x="840"><use xlink:href="#a"/><use xlink:href="#b" x="12.996"/><text x="1.002" y="1.67" class="c">~/repo</text><text x="8.016" y="1.67" class="d">autor</text></svg><svg x="960"><use xlink:href="#a"/><use xlink:href="#b" x="13.996"/><text x="1.002" y="1.67" class="c">~/repo</text><text x="8.016" y="1.67" class="d">autore</text></svg><svg x="1080"><use xlink:href="#a"/><use xlink:href="#b" x="14.996"/><text x="1.002" y="1.67" class="c">~/repo</text><text x="8.016" y="1.67" class="d">autoreb</text></svg><svg x="1200"><use xlink:href="#a"/><use xlink:href="#b" x="15.996"/><text x="1.002" y="1.67" class="c">~/repo</text><text x="8.016" y="1.67" class="d">autoreba</text></svg><svg x="1320"><use xlink:href="#a"/><use xlink:href="#b" x="16.996"/><text x="1.002" y="1.67" class="c">~/repo</text><text x="8.016" y="1.67" class="d">autorebas</text></svg><svg x="1440"><use xlink:href="#a"/><use xlink:href="#b" x="17.996"/><use xlink:href="#2"/></svg><svg x="1560"><use xlink:href="#a"/><use xlink:href="#b" x="17.996"/><use xlink:href="#2"/></svg><svg x="1680"><use xlink:href="#a"/><use xlink:href="#b" x="-.004" y="2.146"/><use xlink:href="#2"/></svg><svg x="1800"><use xlink:href="#a"/><use xlink:href="#b" x="-.004" y="2.146"/><use xlink:href="#2"/></svg><svg x="1920"><use xlink:href="#a"/><use xlink:href="#b" x="21.996" y="2.146"/><use xlink:href="#2"/><text y="3.841" class="h">•</text><text x="2.004" y="3.841" class="h">Creating</text><text x="11.022" y="3.841" class="h">worktree...</text></svg><svg x="2040"><use xlink:href="#a"/><use xlink:href="#b" x="20.996" y="4.317"/><use xlink:href="#2"/><use xlink:href="#3" y="2.171"/><text y="6.012" class="h">•</text><text x="2.004" y="6.012" class="h">Getting</text><text x="10.02" y="6.012" class="h">branches...</text></svg><svg x="2160"><use xlink:href="#a"/><use xlink:href="#b" x="10.996" y="10.83"/><use xlink:href="#2"/><use xlink:href="#3" y="2.171"/><use xlink:href="#4" y="4.342"/><use xlink:href="#5" y="6.513"/><use xlink:href="#6" y="8.684"/><use xlink:href="#7" y="10.855"/></svg><svg x="2280"><use xlink:href="#a"/><use xlink:href="#b" x="-.004" y="23.856"/><use xlink:href="#2"/><use xlink:href="#3" y="2.171"/><use xlink:href="#4" y="4.342"/><use xlink:href="#5" y="6.513"/><use xlink:href="#6" y="8.684"/><use xlink:href="#7" y="10.855"/><use xlink:href="#8" y="13.026"/><use xlink:href="#9" y="15.197"/><use xlink:href="#10" y="17.368"/><use xlink:href="#11" y="19.539"/><use xlink:href="#12" y="21.71"/></svg><svg x="2400"><use xlink:href="#a"/><use xlink:href="#b" x="-.004" y="26.027"/><use xlink:href="#2"/><use xlink:href="#3" y="2.171"/><use xlink:href="#4" y="4.342"/><use xlink:href="#5" y="6.513"/><use xlink:href="#6" y="8.684"/><use xlink:href="#7" y="10.855"/><use xlink:href="#8" y="13.026"/><use xlink:href="#9" y="15.197"/><use xlink:href="#10" y="17.368"/><use xlink:href="#11" y="19.539"/><use xlink:href="#12" y="21.71"/><use xlink:href="#13" y="23.881"/></svg><svg x="2520"><use xlink:href="#a"/><use xlink:href="#b" x="-.004" y="28.198"/><use xlink:href="#2"/><use xlink:href="#3" y="2.171"/><use xlink:href="#4" y="4.342"/><use xlink:href="#5" y="6.513"/><use xlink:href="#6" y="8.684"/><use xlink:href="#7" y="10.855"/><use xlink:href="#8" y="13.026"/><use xlink:href="#9" y="15.197"/><use xlink:href="#10" y="17.368"/><use xlink:href="#11" y="19.539"/><use xlink:href="#12" y="21.71"/><use xlink:href="#13" y="23.881"/><use xlink:href="#14" y="26.052"/></svg><svg x="2640"><use xlink:href="#a"/><use xlink:href="#b" x="-.004" y="32.54"/><use xlink:href="#2"/><use xlink:href="#3" y="2.171"/><use xlink:href="#4" y="4.342"/><use xlink:href="#5" y="6.513"/><use xlink:href="#6" y="8.684"/><use xlink:href="#7" y="10.855"/><use xlink:href="#8" y="13.026"/><use xlink:href="#9" y="15.197"/><use xlink:href="#10" y="17.368"/><use xlink:href="#11" y="19.539"/><use xlink:href="#12" y="21.71"/><use xlink:href="#13" y="23.881"/><use xlink:href="#14" y="26.052"/><use xlink:href="#15" y="28.223"/><use xlink:href="#16" y="30.394"/></svg><svg x="2760"><use xlink:href="#a"/><use xlink:href="#b" x="-.004" y="34.711"/><use xlink:href="#2"/><use xlink:href="#3" y="2.171"/><use xlink:href="#4" y="4.342"/><use xlink:href="#5" y="6.513"/><use xlink:href="#6" y="8.684"/><use xlink:href="#7" y="10.855"/><use xlink:href="#8" y="13.026"/><use xlink:href="#9" y="15.197"/><use xlink:href="#10" y="17.368"/><use xlink:href="#11" y="19.539"/><use xlink:href="#12" y="21.71"/><use xlink:href="#13" y="23.881"/><use xlink:href="#14" y="26.052"/><use xlink:href="#15" y="28.223"/><use xlink:href="#16" y="30.394"/><use xlink:href="#13" y="32.565"/></svg><svg x="2880"><use xlink:href="#a"/><use xlink:href="#b" x="-.004" y="36.882"/><use xlink:href="#2"/><use xlink:href="#3" y="2.171"/><use xlink:href="#4" y="4.342"/><use xlink:href="#5" y="6.513"/><use xlink:href="#6" y="8.684"/><use xlink:href="#7" y="10.855"/><use xlink:href="#8" y="13.026"/><use xlink:href="#9" y="15.197"/><use xlink:href="#10" y="17.368"/><use xlink:href="#11" y="19.539"/><use xlink:href="#12" y="21.71"/><use xlink:href="#13" y="23.881"/><use xlink:href="#14" y="26.052"/><use xlink:href="#15" y="28.223"/><use xlink:href="#16" y="30.394"/><use xlink:href="#13" y="32.565"/><use xlink:href="#17" y="34.736"/></svg><svg x="3000"><use xlink:href="#a"/><use xlink:href="#b" x="-.004" y="39.053"/><use xlink:href="#2"/><use xlink:href="#3" y="2.171"/><use xlink:href="#4" y="4.342"/><use xlink:href="#5" y="6.513"/><use xlink:href="#6" y="8.684"/><use xlink:href="#7" y="10.855"/><use xlink:href="#8" y="13.026"/><use xlink:href="#9" y="15.197"/><use xlink:href="#10" y="17.368"/><use xlink:href="#11" y="19.539"/><use xlink:href="#12" y="21.71"/><use xlink:href="#13" y="23.881"/><use xlink:href="#14" y="26.052"/><use xlink:href="#15" y="28.223"/><use xlink:href="#16" y="30.394"/><use xlink:href="#13" y="32.565"/><use xlink:href="#17" y="34.736"/><use xlink:href="#18" y="36.907"/></svg><svg x="3120"><use xlink:href="#a"/><use xlink:href="#b" x="-.004" y="43.395"/><use xlink:href="#2"/><use xlink:href="#3" y="2.171"/><use xlink:href="#4" y="4.342"/><use xlink:href="#5" y="6.513"/><use xlink:href="#6" y="8.684"/><use xlink:href="#7" y="10.855"/><use xlink:href="#8" y="13.026"/><use xlink:href="#9" y="15.197"/><use xlink:href="#10" y="17.368"/><use xlink:href="#11" y="19.539"/><use xlink:href="#12" y="21.71"/><use xlink:href="#13" y="23.881"/><use xlink:href="#14" y="26.052"/><use xlink:href="#15" y="28.223"/><use xlink:href="#16" y="30.394"/><use xlink:href="#13" y="32.565"/><use xlink:href="#17" y="34.736"/><use xlink:href="#18" y="36.907"/><use xlink:href="#15" y="39.078"/><use xlink:href="#16" y="41.249"/></svg><svg x="3240"><use xlink:href="#a"/><use xlink:href="#b" x="-.004" y="45.566"/><use xlink:href="#2"/><use xlink:href="#3" y="2.171"/><use xlink:href="#4" y="4.342"/><use xlink:href="#5" y="6.513"/><use xlink:href="#6" y="8.684"/><use xlink:href="#7" y="10.855"/><use xlink:href="#8" y="13.026"/><use xlink:href="#9" y="15.197"/><use xlink:href="#10" y="17.368"/><use xlink:href="#11" y="19.539"/><use xlink:href="#12" y="21.71"/><use xlink:href="#13" y="23.881"/><use xlink:href="#14" y="26.052"/><use xlink:href="#15" y="28.223"/><use xlink:href="#16" y="30.394"/><use xlink:href="#13" y="32.565"/><use xlink:href="#17" y="34.736"/><use xlink:href="#18" y="36.907"/><use xlink:href="#15" y="39.078"/><use xlink:href="#16" y="41.249"/><use xlink:href="#13" y="43.42"/></svg><svg x="3360"><use xlink:href="#a"/><use xlink:href="#b" x="-.004" y="47.737"/><use xlink:href="#2"/><use xlink:href="#3" y="2.171"/><use xlink:href="#4" y="4.342"/><use xlink:href="#5" y="6.513"/><use xlink:href="#6" y="8.684"/><use xlink:href="#7" y="10.855"/><use xlink:href="#8" y="13.026"/><use xlink:href="#9" y="15.197"/><use xlink:href="#10" y="17.368"/><use xlink:href="#11" y="19.539"/><use xlink:href="#12" y="21.71"/><use xlink:href="#13" y="23.881"/><use xlink:href="#14" y="26.052"/><use xlink:href="#15" y="28.223"/><use xlink:href="#16" y="30.394"/><use xlink:href="#13" y="32.565"/><use xlink:href="#17" y="34.736"/><use xlink:href="#18" y="36.907"/><use xlink:href="#15" y="39.078"/><use xlink:href="#16" y="41.249"/><use xlink:href="#13" y="43.42"/><use xlink:href="#17" y="45.591"/></svg><svg x="3480"><use xlink:href="#a"/><use xlink:href="#b" x="-.004" y="49.908"/><use xlink:href="#2"/><use xlink:href="#3" y="2.171"/><use xlink:href="#4" y="4.342"/><use xlink:href="#5" y="6.513"/><use xlink:href="#6" y="8.684"/><use xlink:href="#7" y="10.855"/><use xlink:href="#8" y="13.026"/><use xlink:href="#9" y="15.197"/><use xlink:href="#10" y="17.368"/><use xlink:href="#11" y="19.539"/><use xlink:href="#12" y="21.71"/><use xlink:href="#13" y="23.881"/><use xlink:href="#14" y="26.052"/><use xlink:href="#15" y="28.223"/><use xlink:href="#16" y="30.394"/><use xlink:href="#13" y="32.565"/><use xlink:href="#17" y="34.736"/><use xlink:href="#18" y="36.907"/><use xlink:href="#15" y="39.078"/><use xlink:href="#16" y="41.249"/><use xlink:href="#13" y="43.42"/><use xlink:href="#17" y="45.591"/><use xlink:href="#19" y="47.762"/></svg><svg x="3600"><use xlink:href="#a"/><use xlink:href="#b" x="-.004" y="52.079"/><use xlink:href="#2"/><use xlink:href="#3" y="2.171"/><use xlink:href="#4" y="4.342"/><use xlink:href="#5" y="6.513"/><use xlink:href="#6" y="8.684"/><use xlink:href="#7" y="10.855"/><use xlink:href="#8" y="13.026"/><use xlink:href="#9" y="15.197"/><use xlink:href="#10" y="17.368"/><use xlink:href="#11" y="19.539"/><use xlink:href="#12" y="21.71"/><use xlink:href="#13" y="23.881"/><use xlink:href="#14" y="26.052"/><use xlink:href="#15" y="28.223"/><use xlink:href="#16" y="30.394"/><use xlink:href="#13" y="32.565"/><use xlink:href="#17" y="34.736"/><use xlink:href="#18" y="36.907"/><use xlink:href="#15" y="39.078"/><use xlink:href="#16" y="41.249"/><use xlink:href="#13" y="43.42"/><use xlink:href="#17" y="45.591"/><use xlink:href="#19" y="47.762"/><use xlink:href="#13" y="49.933"/></svg><svg x="3720"><use xlink:href="#a"/><use xlink:href="#b" x="-.004" y="54.25"/><use xlink:href="#2"/><use xlink:href="#3" y="2.171"/><use xlink:href="#4" y="4.342"/><use xlink:href="#5" y="6.513"/><use xlink:href="#6" y="8.684"/><use xlink:href="#7" y="10.855"/><use xlink:href="#8" y="13.026"/><use xlink:href="#9" y="15.197"/><use xlink:href="#10" y="17.368"/><use xlink:href="#11" y="19.539"/><use xlink:href="#12" y="21.71"/><use xlink:href="#13" y="23.881"/><use xlink:href="#14" y="26.052"/><use xlink:href="#15" y="28.223"/><use xlink:href="#16" y="30.394"/><use xlink:href="#13" y="32.565"/><use xlink:href="#17" y="34.736"/><use xlink:href="#18" y="36.907"/><use xlink:href="#15" y="39.078"/><use xlink:href="#16" y="41.249"/><use xlink:href="#13" y="43.42"/><use xlink:href="#17" y="45.591"/><use xlink:href="#19" y="47.762"/><use xlink:href="#13" y="49.933"/><use xlink:href="#20" y="52.104"/></svg><svg x="3840"><use xlink:href="#a"/><use xlink:href="#b" x="-.004" y="58.592"/><use xlink:href="#2"/><use xlink:href="#3" y="2.171"/><use xlink:href="#4" y="4.342"/><use xlink:href="#5" y="6.513"/><use xlink:href="#6" y="8.684"/><use xlink:href="#7" y="10.855"/><use xlink:href="#8" y="13.026"/><use xlink:href="#9" y="15.197"/><use xlink:href="#10" y="17.368"/><use xlink:href="#11" y="19.539"/><use xlink:href="#12" y="21.71"/><use xlink:href="#13" y="23.881"/><use xlink:href="#14" y="26.052"/><use xlink:href="#15" y="28.223"/><use xlink:href="#16" y="30.394"/><use xlink:href="#13" y="32.565"/><use xlink:href="#17" y="34.736"/><use xlink:href="#18" y="36.907"/><use xlink:href="#15" y="39.078"/><use xlink:href="#16" y="41.249"/><use xlink:href="#13" y="43.42"/><use xlink:href="#17" y="45.591"/><use xlink:href="#19" y="47.762"/><use xlink:href="#13" y="49.933"/><use xlink:href="#20" y="52.104"/><use xlink:href="#15" y="54.275"/><use xlink:href="#16" y="56.446"/></svg><svg x="3960"><use xlink:href="#a"/><use xlink:href="#b" x="-.004" y="60.763"/><use xlink:href="#2"/><use xlink:href="#3" y="2.171"/><use xlink:href="#4" y="4.342"/><use xlink:href="#5" y="6.513"/><use xlink:href="#6" y="8.684"/><use xlink:href="#7" y="10.855"/><use xlink:href="#8" y="13.026"/><use xlink:href="#9" y="15.197"/><use xlink:href="#10" y="17.368"/><use xlink:href="#11" y="19.539"/><use xlink:href="#12" y="21.71"/><use xlink:href="#13" y="23.881"/><use xlink:href="#14" y="26.052"/><use xlink:href="#15" y="28.223"/><use xlink:href="#16" y="30.394"/><use xlink:href="#13" y="32.565"/><use xlink:href="#17" y="34.736"/><use xlink:href="#18" y="36.907"/><use xlink:href="#15" y="39.078"/><use xlink:href="#16" y="41.249"/><use xlink:href="#13" y="43.42"/><use xlink:href="#17" y="45.591"/><use xlink:href="#19" y="47.762"/><use xlink:href="#13" y="49.933"/><use xlink:href="#20" y="52.104"/><use xlink:href="#15" y="54.275"/><use xlink:href="#16" y="56.446"/><use xlink:href="#13" y="58.617"/></svg><svg x="4080"><use xlink:href="#a"/><use xlink:href="#b" x="-.004" y="62.934"/><use xlink:href="#2"/><use xlink:href="#3" y="2.171"/><use xlink:href="#4" y="4.342"/><use xlink:href="#5" y="6.513"/><use xlink:href="#6" y="8.684"/><use xlink:href="#7" y="10.855"/><use xlink:href="#8" y="13.026"/><use xlink:href="#9" y="15.197"/><use xlink:href="#10" y="17.368"/><use xlink:href="#11" y="19.539"/><use xlink:href="#12" y="21.71"/><use xlink:href="#13" y="23.881"/><use xlink:href="#14" y="26.052"/><use xlink:href="#15" y="28.223"/><use xlink:href="#16" y="30.394"/><use xlink:href="#13" y="32.565"/><use xlink:href="#17" y="34.736"/><use xlink:href="#18" y="36.907"/><use xlink:href="#15" y="39.078"/><use xlink:href="#16" y="41.249"/><use xlink:href="#13" y="43.42"/><use xlink:href="#17" y="45.591"/><use xlink:href="#19" y="47.762"/><use xlink:href="#13" y="49.933"/><use xlink:href="#20" y="52.104"/><use xlink:href="#15" y="54.275"/><use xlink:href="#16" y="56.446"/><use xlink:href="#13" y="58.617"/><use xlink:href="#17" y="60.788"/></svg><svg x="4200"><use xlink:href="#a"/><use xlink:href="#b" x="-.004" y="62.934"/><use xlink:href="#2"/><use xlink:href="#3" y="2.171"/><use xlink:href="#4" y="4.342"/><use xlink:href="#5" y="6.513"/><use xlink:href="#6" y="8.684"/><use xlink:href="#7" y="10.855"/><use xlink:href="#8" y="13.026"/><use xlink:href="#9" y="15.197"/><use xlink:href="#10" y="17.368"/><use xlink:href="#11" y="19.539"/><use xlink:href="#12" y="21.71"/><use xlink:href="#13" y="23.881"/><use xlink:href="#14" y="26.052"/><use xlink:href="#15" y="28.223"/><use xlink:href="#16" y="30.394"/><use xlink:href="#13" y="32.565"/><use xlink:href="#17" y="34.736"/><use xlink:href="#18" y="36.907"/><use xlink:href="#15" y="39.078"/><use xlink:href="#16" y="41.249"/><use xlink:href="#13" y="43.42"/><use xlink:href="#17" y="45.591"/><use xlink:href="#19" y="47.762"/><use xlink:href="#13" y="49.933"/><use xlink:href="#20" y="52.104"/><use xlink:href="#15" y="54.275"/><use xlink:href="#16" y="56.446"/><use xlink:href="#13" y="58.617"/><use xlink:href="#17" y="60.788"/></svg><svg x="4320"><use xlink:href="#a"/><use xlink:href="#b" x="-.004" y="62.934"/><use xlink:href="#2"/><use xlink:href="#3" y="2.171"/><use xlink:href="#4" y="4.342"/><use xlink:href="#5" y="6.513"/><use xlink:href="#6" y="8.684"/><use xlink:href="#7" y="10.855"/><use xlink:href="#8" y="13.026"/><use xlink:href="#9" y="15.197"/><use xlink:href="#10" y="17.368"/><use xlink:href="#11" y="19.539"/><use xlink:href="#12" y="21.71"/><use xlink:href="#13" y="23.881"/><use xlink:href="#14" y="26.052"/><use xlink:href="#15" y="28.223"/><use xlink:href="#16" y="30.394"/><use xlink:href="#13" y="32.565"/><use xlink:href="#17" y="34.736"/><use xlink:href="#18" y="36.907"/><use xlink:href="#15" y="39.078"/><use xlink:href="#16" y="41.249"/><use xlink:href="#13" y="43.42"/><use xlink:href="#17" y="45.591"/><use xlink:href="#19" y="47.762"/><use xlink:href="#13" y="49.933"/><use xlink:href="#20" y="52.104"/><use xlink:href="#15" y="54.275"/><use xlink:href="#16" y="56.446"/><use xlink:href="#13" y="58.617"/><use xlink:href="#17" y="60.788"/></svg><svg x="4440"><use xlink:href="#a"/><use xlink:href="#b" x="7.996" y="62.934"/><use xlink:href="#2"/><use xlink:href="#3" y="2.171"/><use xlink:href="#4" y="4.342"/><use xlink:href="#5" y="6.513"/><use xlink:href="#6" y="8.684"/><use xlink:href="#7" y="10.855"/><use xlink:href="#8" y="13.026"/><use xlink:href="#9" y="15.197"/><use xlink:href="#10" y="17.368"/><use xlink:href="#11" y="19.539"/><use xlink:href="#12" y="21.71"/><use xlink:href="#13" y="23.881"/><use xlink:href="#14" y="26.052"/><use xlink:href="#15" y="28.223"/><use xlink:href="#16" y="30.394"/><use xlink:href="#13" y="32.565"/><use xlink:href="#17" y="34.736"/><use xlink:href="#18" y="36.907"/><use xlink:href="#15" y="39.078"/><use xlink:href="#16" y="41.249"/><use xlink:href="#13" y="43.42"/><use xlink:href="#17" y="45.591"/><use xlink:href="#19" y="47.762"/><use xlink:href="#13" y="49.933"/><use xlink:href="#20" y="52.104"/><use xlink:href="#15" y="54.275"/><use xlink:href="#16" y="56.446"/><use xlink:href="#13" y="58.617"/><use xlink:href="#17" y="60.788"/><use xlink:href="#1" y="62.959"/></svg><svg x="4560"><use xlink:href="#a"/><use xlink:href="#b" x="7.996" y="62.934"/><use xlink:href="#2"/><use xlink:href="#3" y="2.171"/><use xlink:href="#4" y="4.342"/><use xlink:href="#5" y="6.513"/><use xlink:href="#6" y="8.684"/><use xlink:href="#7" y="10.855"/><use xlink:href="#8" y="13.026"/><use xlink:href="#9" y="15.197"/><use xlink:href="#10" y="17.368"/><use xlink:href="#11" y="19.539"/><use xlink:href="#12" y="21.71"/><use xlink:href="#13" y="23.881"/><use xlink:href="#14" y="26.052"/><use xlink:href="#15" y="28.223"/><use xlink:href="#16" y="30.394"/><use xlink:href="#13" y="32.565"/><use xlink:href="#17" y="34.736"/><use xlink:href="#18" y="36.907"/><use xlink:href="#15" y="39.078"/><use xlink:href="#16" y="41.249"/><use xlink:href="#13" y="43.42"/><use xlink:href="#17" y="45.591"/><use xlink:href="#19" y="47.762"/><use xlink:href="#13" y="49.933"/><use xlink:href="#20" y="52.104"/><use xlink:href="#15" y="54.275"/><use xlink:href="#16" y="56.446"/><use xlink:href="#13" y="58.617"/><use xlink:href="#17" y="60.788"/><use xlink:href="#1" y="62.959"/></svg><svg x="4680"><use xlink:href="#a"/><use xlink:href="#b" x="7.996" y="62.934"/><use xlink:href="#2"/><use xlink:href="#3" y="2.171"/><use xlink:href="#4" y="4.342"/><use xlink:href="#5" y="6.513"/><use xlink:href="#6" y="8.684"/><use xlink:href="#7" y="10.855"/><use xlink:href="#8" y="13.026"/><use xlink:href="#9" y="15.197"/><use xlink:href="#10" y="17.368"/><use xlink:href="#11" y="19.539"/><use xlink:href="#12" y="21.71"/><use xlink:href="#13" y="23.881"/><use xlink:href="#14" y="26.052"/><use xlink:href="#15" y="28.223"/><use xlink:href="#16" y="30.394"/><use xlink:href="#13" y="32.565"/><use xlink:href="#17" y="34.736"/><use xlink:href="#18" y="36.907"/><use xlink:href="#15" y="39.078"/><use xlink:href="#16" y="41.249"/><use xlink:href="#13" y="43.42"/><use xlink:href="#17" y="45.591"/><use xlink:href="#19" y="47.762"/><use xlink:href="#13" y="49.933"/><use xlink:href="#20" y="52.104"/><use xlink:href="#15" y="54.275"/><use xlink:href="#16" y="56.446"/><use xlink:href="#13" y="58.617"/><use xlink:href="#17" y="60.788"/><use xlink:href="#1" y="62.959"/></svg><svg x="4800"><use xlink:href="#a"/><use xlink:href="#b" x="-.004" y="65.105"/><use xlink:href="#2"/><use xlink:href="#3" y="2.171"/><use xlink:href="#4" y="4.342"/><use xlink:href="#5" y="6.513"/><use xlink:href="#6" y="8.684"/><use xlink:href="#7" y="10.855"/><use xlink:href="#8" y="13.026"/><use xlink:href="#9" y="15.197"/><use xlink:href="#10" y="17.368"/><use xlink:href="#11" y="19.539"/><use xlink:href="#12" y="21.71"/><use xlink:href="#13" y="23.881"/><use xlink:href="#14" y="26.052"/><use xlink:href="#15" y="28.223"/><use xlink:href="#16" y="30.394"/><use xlink:href="#13" y="32.565"/><use xlink:href="#17" y="34.736"/><use xlink:href="#18" y="36.907"/><use xlink:href="#15" y="39.078"/><use xlink:href="#16" y="41.249"/><use xlink:href="#13" y="43.42"/><use xlink:href="#17" y="45.591"/><use xlink:href="#19" y="47.762"/><use xlink:href="#13" y="49.933"/><use xlink:href="#20" y="52.104"/><use xlink:href="#15" y="54.275"/><use xlink:href="#16" y="56.446"/><use xlink:href="#13" y="58.617"/><use xlink:href="#17" y="60.788"/><use xlink:href="#1" y="62.959"/></svg></svg></g></g></svg></svg>
